<mxfile host="app.diagrams.net" modified="2022-05-09T12:56:19.677Z" agent="5.0 (Windows NT 10.0; Win64; x64) AppleWebKit/537.36 (KHTML, like Gecko) Chrome/100.0.4896.127 Safari/537.36" etag="oinq6jYyHagoZ0kxbJxu" version="16.2.0" type="github">
  <diagram id="UTL9oAtbc97huWoyyTnZ" name="Page-1">
    <mxGraphModel dx="1666" dy="609" grid="1" gridSize="10" guides="1" tooltips="1" connect="1" arrows="1" fold="1" page="1" pageScale="1" pageWidth="850" pageHeight="1100" math="0" shadow="0">
      <root>
        <mxCell id="0" />
        <mxCell id="1" parent="0" />
        <mxCell id="6gGuHzRQzGazjfxGGEVp-1" value="Node" style="rounded=0;whiteSpace=wrap;html=1;sketch=1;fontFamily=Architects Daughter;fontSource=https%3A%2F%2Ffonts.googleapis.com%2Fcss%3Ffamily%3DArchitects%2BDaughter;" vertex="1" parent="1">
          <mxGeometry x="120" y="280" width="120" height="30" as="geometry" />
        </mxCell>
        <mxCell id="6gGuHzRQzGazjfxGGEVp-3" value="ID" style="rounded=0;whiteSpace=wrap;html=1;sketch=1;fontFamily=Architects Daughter;fontSource=https%3A%2F%2Ffonts.googleapis.com%2Fcss%3Ffamily%3DArchitects%2BDaughter;" vertex="1" parent="1">
          <mxGeometry x="160" y="320" width="80" height="30" as="geometry" />
        </mxCell>
        <mxCell id="6gGuHzRQzGazjfxGGEVp-4" value="Tags" style="rounded=0;whiteSpace=wrap;html=1;sketch=1;fontFamily=Architects Daughter;fontSource=https%3A%2F%2Ffonts.googleapis.com%2Fcss%3Ffamily%3DArchitects%2BDaughter;" vertex="1" parent="1">
          <mxGeometry x="160" y="350" width="80" height="30" as="geometry" />
        </mxCell>
        <mxCell id="6gGuHzRQzGazjfxGGEVp-5" value="Properties" style="rounded=0;whiteSpace=wrap;html=1;sketch=1;fontFamily=Architects Daughter;fontSource=https%3A%2F%2Ffonts.googleapis.com%2Fcss%3Ffamily%3DArchitects%2BDaughter;" vertex="1" parent="1">
          <mxGeometry x="160" y="380" width="80" height="30" as="geometry" />
        </mxCell>
        <mxCell id="6gGuHzRQzGazjfxGGEVp-6" value="STRING" style="rounded=0;whiteSpace=wrap;html=1;sketch=1;fontFamily=Architects Daughter;fontSource=https%3A%2F%2Ffonts.googleapis.com%2Fcss%3Ffamily%3DArchitects%2BDaughter;fillColor=#dae8fc;strokeColor=#6c8ebf;" vertex="1" parent="1">
          <mxGeometry x="240" y="320" width="80" height="30" as="geometry" />
        </mxCell>
        <mxCell id="6gGuHzRQzGazjfxGGEVp-7" value="[STRING]" style="rounded=0;whiteSpace=wrap;html=1;sketch=1;fontFamily=Architects Daughter;fontSource=https%3A%2F%2Ffonts.googleapis.com%2Fcss%3Ffamily%3DArchitects%2BDaughter;fillColor=#dae8fc;strokeColor=#6c8ebf;" vertex="1" parent="1">
          <mxGeometry x="240" y="350" width="80" height="30" as="geometry" />
        </mxCell>
        <mxCell id="6gGuHzRQzGazjfxGGEVp-16" style="edgeStyle=orthogonalEdgeStyle;rounded=0;orthogonalLoop=1;jettySize=auto;html=1;entryX=0;entryY=0.5;entryDx=0;entryDy=0;sketch=1;" edge="1" parent="1" source="6gGuHzRQzGazjfxGGEVp-8" target="6gGuHzRQzGazjfxGGEVp-9">
          <mxGeometry relative="1" as="geometry" />
        </mxCell>
        <mxCell id="6gGuHzRQzGazjfxGGEVp-8" value="[OBJECT]" style="rounded=0;whiteSpace=wrap;html=1;sketch=1;fontFamily=Architects Daughter;fontSource=https%3A%2F%2Ffonts.googleapis.com%2Fcss%3Ffamily%3DArchitects%2BDaughter;fillColor=#dae8fc;strokeColor=#6c8ebf;" vertex="1" parent="1">
          <mxGeometry x="240" y="380" width="80" height="30" as="geometry" />
        </mxCell>
        <mxCell id="6gGuHzRQzGazjfxGGEVp-9" value="Property" style="rounded=0;whiteSpace=wrap;html=1;sketch=1;fontFamily=Architects Daughter;fontSource=https%3A%2F%2Ffonts.googleapis.com%2Fcss%3Ffamily%3DArchitects%2BDaughter;" vertex="1" parent="1">
          <mxGeometry x="400" y="280" width="120" height="30" as="geometry" />
        </mxCell>
        <mxCell id="6gGuHzRQzGazjfxGGEVp-10" value="ID" style="rounded=0;whiteSpace=wrap;html=1;sketch=1;fontFamily=Architects Daughter;fontSource=https%3A%2F%2Ffonts.googleapis.com%2Fcss%3Ffamily%3DArchitects%2BDaughter;" vertex="1" parent="1">
          <mxGeometry x="440" y="320" width="80" height="30" as="geometry" />
        </mxCell>
        <mxCell id="6gGuHzRQzGazjfxGGEVp-12" value="Value" style="rounded=0;whiteSpace=wrap;html=1;sketch=1;fontFamily=Architects Daughter;fontSource=https%3A%2F%2Ffonts.googleapis.com%2Fcss%3Ffamily%3DArchitects%2BDaughter;" vertex="1" parent="1">
          <mxGeometry x="440" y="350" width="80" height="30" as="geometry" />
        </mxCell>
        <mxCell id="6gGuHzRQzGazjfxGGEVp-13" value="STRING" style="rounded=0;whiteSpace=wrap;html=1;sketch=1;fontFamily=Architects Daughter;fontSource=https%3A%2F%2Ffonts.googleapis.com%2Fcss%3Ffamily%3DArchitects%2BDaughter;fillColor=#dae8fc;strokeColor=#6c8ebf;" vertex="1" parent="1">
          <mxGeometry x="520" y="320" width="80" height="30" as="geometry" />
        </mxCell>
        <mxCell id="6gGuHzRQzGazjfxGGEVp-15" value="OBJECT" style="rounded=0;whiteSpace=wrap;html=1;sketch=1;fontFamily=Architects Daughter;fontSource=https%3A%2F%2Ffonts.googleapis.com%2Fcss%3Ffamily%3DArchitects%2BDaughter;fillColor=#dae8fc;strokeColor=#6c8ebf;" vertex="1" parent="1">
          <mxGeometry x="520" y="350" width="80" height="30" as="geometry" />
        </mxCell>
        <mxCell id="6gGuHzRQzGazjfxGGEVp-17" value="_on_edit" style="rounded=0;whiteSpace=wrap;html=1;sketch=1;fontFamily=Architects Daughter;fontSource=https%3A%2F%2Ffonts.googleapis.com%2Fcss%3Ffamily%3DArchitects%2BDaughter;" vertex="1" parent="1">
          <mxGeometry x="440" y="380" width="80" height="30" as="geometry" />
        </mxCell>
        <mxCell id="6gGuHzRQzGazjfxGGEVp-18" value="function" style="rounded=0;whiteSpace=wrap;html=1;sketch=1;fontFamily=Architects Daughter;fontSource=https%3A%2F%2Ffonts.googleapis.com%2Fcss%3Ffamily%3DArchitects%2BDaughter;fillColor=#dae8fc;strokeColor=#6c8ebf;" vertex="1" parent="1">
          <mxGeometry x="520" y="380" width="80" height="30" as="geometry" />
        </mxCell>
        <mxCell id="6gGuHzRQzGazjfxGGEVp-19" value="_on_create" style="rounded=0;whiteSpace=wrap;html=1;sketch=1;fontFamily=Architects Daughter;fontSource=https%3A%2F%2Ffonts.googleapis.com%2Fcss%3Ffamily%3DArchitects%2BDaughter;" vertex="1" parent="1">
          <mxGeometry x="440" y="410" width="80" height="30" as="geometry" />
        </mxCell>
        <mxCell id="6gGuHzRQzGazjfxGGEVp-20" value="function" style="rounded=0;whiteSpace=wrap;html=1;sketch=1;fontFamily=Architects Daughter;fontSource=https%3A%2F%2Ffonts.googleapis.com%2Fcss%3Ffamily%3DArchitects%2BDaughter;fillColor=#dae8fc;strokeColor=#6c8ebf;" vertex="1" parent="1">
          <mxGeometry x="520" y="410" width="80" height="30" as="geometry" />
        </mxCell>
        <mxCell id="6gGuHzRQzGazjfxGGEVp-21" value="_on_cancel" style="rounded=0;whiteSpace=wrap;html=1;sketch=1;fontFamily=Architects Daughter;fontSource=https%3A%2F%2Ffonts.googleapis.com%2Fcss%3Ffamily%3DArchitects%2BDaughter;" vertex="1" parent="1">
          <mxGeometry x="440" y="440" width="80" height="30" as="geometry" />
        </mxCell>
        <mxCell id="6gGuHzRQzGazjfxGGEVp-22" value="function" style="rounded=0;whiteSpace=wrap;html=1;sketch=1;fontFamily=Architects Daughter;fontSource=https%3A%2F%2Ffonts.googleapis.com%2Fcss%3Ffamily%3DArchitects%2BDaughter;fillColor=#dae8fc;strokeColor=#6c8ebf;" vertex="1" parent="1">
          <mxGeometry x="520" y="440" width="80" height="30" as="geometry" />
        </mxCell>
        <mxCell id="6gGuHzRQzGazjfxGGEVp-23" value="set_property" style="rounded=0;whiteSpace=wrap;html=1;sketch=1;fontFamily=Architects Daughter;fontSource=https%3A%2F%2Ffonts.googleapis.com%2Fcss%3Ffamily%3DArchitects%2BDaughter;" vertex="1" parent="1">
          <mxGeometry x="440" y="470" width="80" height="30" as="geometry" />
        </mxCell>
        <mxCell id="6gGuHzRQzGazjfxGGEVp-24" value="function" style="rounded=0;whiteSpace=wrap;html=1;sketch=1;fontFamily=Architects Daughter;fontSource=https%3A%2F%2Ffonts.googleapis.com%2Fcss%3Ffamily%3DArchitects%2BDaughter;fillColor=#dae8fc;strokeColor=#6c8ebf;" vertex="1" parent="1">
          <mxGeometry x="520" y="470" width="80" height="30" as="geometry" />
        </mxCell>
        <mxCell id="6gGuHzRQzGazjfxGGEVp-25" value="STRING" style="rounded=0;whiteSpace=wrap;html=1;sketch=1;fontFamily=Architects Daughter;fontSource=https%3A%2F%2Ffonts.googleapis.com%2Fcss%3Ffamily%3DArchitects%2BDaughter;fillColor=#dae8fc;strokeColor=#6c8ebf;" vertex="1" parent="1">
          <mxGeometry x="600" y="470" width="80" height="30" as="geometry" />
        </mxCell>
      </root>
    </mxGraphModel>
  </diagram>
</mxfile>
